<svg xmlns="http://www.w3.org/2000/svg" xmlns:xlink="http://www.w3.org/1999/xlink" viewBox="0,0,256,256" width="100px" height="100px"><g fill="none" fill-rule="nonzero" stroke="none" stroke-width="none" stroke-linecap="none" stroke-linejoin="none" stroke-miterlimit="10" stroke-dasharray="" stroke-dashoffset="0" font-family="none" font-weight="none" font-size="none" text-anchor="none" style="mix-blend-mode: normal"><g transform="scale(2.56,2.56)"><path d="M87.215,56.71c1.135,-2.155 1.785,-4.605 1.785,-7.21c0,-6.621 -4.159,-12.257 -10.001,-14.478c0,-0.007 0.001,-0.014 0.001,-0.022c0,-11.598 -9.402,-21 -21,-21c-9.784,0 -17.981,6.701 -20.313,15.757c-1.476,-0.485 -3.049,-0.757 -4.687,-0.757c-7.692,0 -14.023,5.793 -14.89,13.252c-5.204,1.101 -9.11,5.717 -9.11,11.248c0,6.351 5.149,11.5 11.5,11.5c0.177,0 0.352,-0.012 0.526,-0.022c-0.004,0.175 -0.026,0.346 -0.026,0.522c0,11.322 9.178,20.5 20.5,20.5c6.437,0 12.175,-2.972 15.934,-7.614c2.178,2.225 5.206,3.614 8.566,3.614c4.65,0 8.674,-2.65 10.666,-6.518c1.052,0.335 2.171,0.518 3.334,0.518c6.075,0 11,-4.925 11,-11c0,-3.311 -1.47,-6.273 -3.785,-8.29z" fill="#c7ede6" stroke="none" stroke-width="1" stroke-linecap="butt" stroke-linejoin="miter"></path><path d="M15.5,51h-10c-0.276,0 -0.5,-0.224 -0.5,-0.5c0,-0.276 0.224,-0.5 0.5,-0.5h10c0.276,0 0.5,0.224 0.5,0.5c0,0.276 -0.223,0.5 -0.5,0.5z" fill="#ffffff" stroke="none" stroke-width="1" stroke-linecap="butt" stroke-linejoin="miter"></path><path d="M18.5,51h-1c-0.276,0 -0.5,-0.224 -0.5,-0.5c0,-0.276 0.224,-0.5 0.5,-0.5h1c0.276,0 0.5,0.224 0.5,0.5c0,0.276 -0.223,0.5 -0.5,0.5z" fill="#ffffff" stroke="none" stroke-width="1" stroke-linecap="butt" stroke-linejoin="miter"></path><path d="M23.491,53h-8.991c-0.276,0 -0.5,-0.224 -0.5,-0.5c0,-0.276 0.224,-0.5 0.5,-0.5h8.991c0.276,0 0.5,0.224 0.5,0.5c0,0.276 -0.224,0.5 -0.5,0.5z" fill="#ffffff" stroke="none" stroke-width="1" stroke-linecap="butt" stroke-linejoin="miter"></path><path d="M12.5,53h-1c-0.276,0 -0.5,-0.224 -0.5,-0.5c0,-0.276 0.224,-0.5 0.5,-0.5h1c0.276,0 0.5,0.224 0.5,0.5c0,0.276 -0.223,0.5 -0.5,0.5z" fill="#ffffff" stroke="none" stroke-width="1" stroke-linecap="butt" stroke-linejoin="miter"></path><path d="M9.5,53h-2c-0.276,0 -0.5,-0.224 -0.5,-0.5c0,-0.276 0.224,-0.5 0.5,-0.5h2c0.276,0 0.5,0.224 0.5,0.5c0,0.276 -0.223,0.5 -0.5,0.5z" fill="#ffffff" stroke="none" stroke-width="1" stroke-linecap="butt" stroke-linejoin="miter"></path><path d="M15.5,55h-2c-0.276,0 -0.5,-0.224 -0.5,-0.5c0,-0.276 0.224,-0.5 0.5,-0.5h2c0.276,0 0.5,0.224 0.5,0.5c0,0.276 -0.224,0.5 -0.5,0.5z" fill="#ffffff" stroke="none" stroke-width="1" stroke-linecap="butt" stroke-linejoin="miter"></path><path d="M18.5,46c-0.177,0 -0.823,0 -1,0c-0.276,0 -0.5,0.224 -0.5,0.5c0,0.276 0.224,0.5 0.5,0.5c0.177,0 0.823,0 1,0c0.276,0 0.5,-0.224 0.5,-0.5c0,-0.276 -0.224,-0.5 -0.5,-0.5z" fill="#ffffff" stroke="none" stroke-width="1" stroke-linecap="butt" stroke-linejoin="miter"></path><path d="M18.5,48c-0.177,0 -4.823,0 -5,0c-0.276,0 -0.5,0.224 -0.5,0.5c0,0.276 0.224,0.5 0.5,0.5c0.177,0 4.823,0 5,0c0.276,0 0.5,-0.224 0.5,-0.5c0,-0.276 -0.224,-0.5 -0.5,-0.5z" fill="#ffffff" stroke="none" stroke-width="1" stroke-linecap="butt" stroke-linejoin="miter"></path><path d="M23.5,50c-0.177,0 -2.823,0 -3,0c-0.276,0 -0.5,0.224 -0.5,0.5c0,0.276 0.224,0.5 0.5,0.5c0.177,0 2.823,0 3,0c0.276,0 0.5,-0.224 0.5,-0.5c0,-0.276 -0.224,-0.5 -0.5,-0.5z" fill="#ffffff" stroke="none" stroke-width="1" stroke-linecap="butt" stroke-linejoin="miter"></path><g fill="#ffffff" stroke="none" stroke-width="1" stroke-linecap="butt" stroke-linejoin="miter"><path d="M72.5,24h-10c-0.276,0 -0.5,-0.224 -0.5,-0.5c0,-0.276 0.224,-0.5 0.5,-0.5h10c0.276,0 0.5,0.224 0.5,0.5c0,0.276 -0.224,0.5 -0.5,0.5z"></path><path d="M76.5,24h-2c-0.276,0 -0.5,-0.224 -0.5,-0.5c0,-0.276 0.224,-0.5 0.5,-0.5h2c0.276,0 0.5,0.224 0.5,0.5c0,0.276 -0.224,0.5 -0.5,0.5z"></path><path d="M81.5,26h-10c-0.276,0 -0.5,-0.224 -0.5,-0.5c0,-0.276 0.224,-0.5 0.5,-0.5h10c0.276,0 0.5,0.224 0.5,0.5c0,0.276 -0.223,0.5 -0.5,0.5z"></path><path d="M69.5,26h-1c-0.276,0 -0.5,-0.224 -0.5,-0.5c0,-0.276 0.224,-0.5 0.5,-0.5h1c0.276,0 0.5,0.224 0.5,0.5c0,0.276 -0.224,0.5 -0.5,0.5z"></path><path d="M66.47,26h-1.97c-0.276,0 -0.5,-0.224 -0.5,-0.5c0,-0.276 0.224,-0.5 0.5,-0.5h1.97c0.276,0 0.5,0.224 0.5,0.5c0,0.276 -0.224,0.5 -0.5,0.5z"></path><path d="M75.5,22h-5c-0.276,0 -0.5,-0.224 -0.5,-0.5c0,-0.276 0.224,-0.5 0.5,-0.5h5c0.276,0 0.5,0.224 0.5,0.5c0,0.276 -0.223,0.5 -0.5,0.5z"></path><path d="M72.5,28h-2c-0.276,0 -0.5,-0.224 -0.5,-0.5c0,-0.276 0.224,-0.5 0.5,-0.5h2c0.276,0 0.5,0.224 0.5,0.5c0,0.276 -0.224,0.5 -0.5,0.5z"></path></g><g stroke="none" stroke-width="1" stroke-linecap="butt" stroke-linejoin="miter"><path d="M76.5,60.5v0.5h3v-0.5c0,0 4.242,0 5.5,0c2.485,0 4.5,-2.015 4.5,-4.5c0,-2.333 -1.782,-4.229 -4.055,-4.455c0.022,-0.181 0.055,-0.358 0.055,-0.545c0,-2.485 -2.015,-4.5 -4.5,-4.5c-1.438,0 -2.703,0.686 -3.527,1.736c-0.14,-2.636 -2.302,-4.736 -4.973,-4.736c-2.761,0 -5,2.239 -5,5c0,0.446 0.077,0.87 0.187,1.282c-0.642,-0.777 -1.601,-1.282 -2.687,-1.282c-1.781,0 -3.234,1.335 -3.455,3.055c-0.181,-0.022 -0.358,-0.055 -0.545,-0.055c-2.485,0 -4.5,2.015 -4.5,4.5c0,2.485 2.015,4.5 4.5,4.5c2.485,0 9.5,0 9.5,0z" fill="#fdfcef"></path><path d="M72.5,43c-3.033,0 -5.5,2.467 -5.5,5.5c0,0.016 0,0.031 0,0.047c-0.602,-0.355 -1.29,-0.547 -2,-0.547c-1.831,0 -3.411,1.261 -3.858,3.005c-0.047,-0.003 -0.094,-0.005 -0.142,-0.005c-2.757,0 -5,2.243 -5,5c0,2.757 2.243,5 5,5h15.5c0.276,0 0.5,-0.224 0.5,-0.5c0,-0.276 -0.224,-0.5 -0.5,-0.5h-15.5c-2.206,0 -4,-1.794 -4,-4c0,-2.206 1.794,-4 4,-4c0.117,0 0.23,0.017 0.343,0.032l0.141,0.019c0.021,0.003 0.041,0.004 0.062,0.004c0.246,0 0.462,-0.185 0.495,-0.437c0.191,-1.493 1.463,-2.618 2.959,-2.618c0.885,0 1.723,0.401 2.301,1.1c0.098,0.118 0.241,0.182 0.386,0.182c0.078,0 0.156,-0.018 0.228,-0.056c0.209,-0.107 0.314,-0.346 0.254,-0.573c-0.115,-0.435 -0.169,-0.801 -0.169,-1.153c0,-2.481 2.019,-4.5 4.5,-4.5c2.381,0 4.347,1.872 4.474,4.263c0.011,0.208 0.15,0.387 0.349,0.45c0.05,0.016 0.101,0.024 0.152,0.024c0.15,0 0.296,-0.069 0.392,-0.192c0.771,-0.982 1.912,-1.545 3.133,-1.545c2.206,0 4,1.794 4,4c0,0.117 -0.017,0.23 -0.032,0.343l-0.019,0.141c-0.016,0.134 0.022,0.268 0.106,0.373c0.084,0.105 0.207,0.172 0.34,0.185c2.056,0.205 3.605,1.907 3.605,3.958c0,2.206 -1.794,4 -4,4h-5.5c-0.276,0 -0.5,0.224 -0.5,0.5c0,0.276 0.224,0.5 0.5,0.5h5.5c2.757,0 5,-2.243 5,-5c0,-2.397 -1.689,-4.413 -4.003,-4.877c0.002,-0.041 0.003,-0.082 0.003,-0.123c0,-2.757 -2.243,-5 -5,-5c-1.176,0 -2.293,0.416 -3.183,1.164c-0.598,-2.404 -2.762,-4.164 -5.317,-4.164z" fill="#472b29"></path><path d="M71,50c-1.403,0 -2.609,0.999 -2.913,2.341c-0.367,-0.222 -0.786,-0.341 -1.212,-0.341c-1.202,0 -2.198,0.897 -2.353,2.068c-0.203,-0.046 -0.396,-0.068 -0.585,-0.068c-1.529,0 -2.811,1.2 -2.918,2.732c-0.009,0.138 0.095,0.258 0.232,0.268c0.006,0 0.012,0 0.018,0c0.13,0 0.24,-0.101 0.249,-0.232c0.089,-1.271 1.151,-2.268 2.419,-2.268c0.229,0 0.47,0.042 0.738,0.127c0.022,0.007 0.045,0.01 0.067,0.01c0.055,0 0.11,-0.02 0.156,-0.054c0.064,-0.046 0.102,-0.128 0.102,-0.208c0,-1.034 0.841,-1.875 1.875,-1.875c0.447,0 0.885,0.168 1.231,0.473c0.047,0.041 0.106,0.063 0.165,0.063c0.032,0 0.063,-0.006 0.093,-0.019c0.088,-0.035 0.148,-0.117 0.155,-0.212c0.104,-1.293 1.193,-2.305 2.481,-2.305c0.208,0 0.425,0.034 0.682,0.107c0.023,0.007 0.047,0.01 0.07,0.01c0.109,0 0.207,-0.073 0.239,-0.182c0.038,-0.133 -0.039,-0.271 -0.172,-0.309c-0.302,-0.086 -0.563,-0.126 -0.819,-0.126z" fill="#472b29"></path><path d="M84.883,51.5c-1.326,0 -2.508,0.897 -2.874,2.182c-0.038,0.133 0.039,0.271 0.172,0.309c0.024,0.006 0.047,0.009 0.069,0.009c0.109,0 0.209,-0.072 0.24,-0.182c0.305,-1.07 1.289,-1.818 2.393,-1.818c0.117,0 0.23,0.014 0.342,0.029c0.012,0.002 0.023,0.003 0.035,0.003c0.121,0 0.229,-0.092 0.246,-0.217c0.019,-0.137 -0.077,-0.263 -0.214,-0.281c-0.134,-0.018 -0.27,-0.034 -0.409,-0.034z" fill="#472b29"></path></g><g stroke="none" stroke-width="1" stroke-linecap="butt" stroke-linejoin="miter"><circle cx="52" cy="50" r="23" fill="#7c8ba2"></circle><path d="M51.999,27.4c12.462,0 22.601,10.138 22.601,22.599c0,12.462 -10.139,22.601 -22.601,22.601c-12.461,0 -22.599,-10.138 -22.599,-22.6c0,-12.462 10.138,-22.6 22.599,-22.6M51.999,26c-13.234,0 -23.999,10.766 -23.999,24c0,13.234 10.765,24 23.999,24c13.234,0 24.001,-10.767 24.001,-24.001c0,-13.234 -10.766,-23.999 -24.001,-23.999z" fill="#472b29"></path></g><g stroke="none" stroke-width="1" stroke-linecap="butt" stroke-linejoin="miter"><path d="M36.5,73.5c0,0 1.567,0 3.5,0c1.933,0 3.5,-1.567 3.5,-3.5c0,-1.781 -1.335,-3.234 -3.055,-3.455c0.028,-0.179 0.055,-0.358 0.055,-0.545c0,-1.933 -1.567,-3.5 -3.5,-3.5c-1.032,0 -1.95,0.455 -2.59,1.165c-0.384,-1.808 -1.987,-3.165 -3.91,-3.165c-2.209,0 -4,1.791 -4,4c0,0.191 0.03,0.374 0.056,0.558c-0.428,-0.344 -0.964,-0.558 -1.556,-0.558c-1.228,0 -2.245,0.887 -2.455,2.055c-0.179,-0.028 -0.358,-0.055 -0.545,-0.055c-1.933,0 -3.5,1.567 -3.5,3.5c0,1.933 1.567,3.5 3.5,3.5c1.933,0 7.5,0 7.5,0v0.5h7z" fill="#fdfcef"></path><path d="M38.25,69c-0.138,0 -0.25,-0.112 -0.25,-0.25c0,-1.223 0.995,-2.218 2.218,-2.218c0.034,0.009 0.737,-0.001 1.244,0.136c0.133,0.036 0.212,0.173 0.176,0.306c-0.036,0.134 -0.173,0.213 -0.306,0.176c-0.444,-0.12 -1.1,-0.12 -1.113,-0.118c-0.948,0 -1.719,0.771 -1.719,1.718c0,0.138 -0.112,0.25 -0.25,0.25z" fill="#472b29"></path><circle cx="31.5" cy="73.5" r="0.5" fill="#472b29"></circle><path d="M40,74h-3.5c-0.276,0 -0.5,-0.224 -0.5,-0.5c0,-0.276 0.224,-0.5 0.5,-0.5h3.5c1.654,0 3,-1.346 3,-3c0,-1.496 -1.125,-2.768 -2.618,-2.959c-0.134,-0.018 -0.255,-0.088 -0.336,-0.196c-0.081,-0.108 -0.115,-0.244 -0.094,-0.377c0.023,-0.154 0.048,-0.308 0.048,-0.468c0,-1.654 -1.346,-3 -3,-3c-0.85,0 -1.638,0.355 -2.219,1c-0.125,0.139 -0.321,0.198 -0.5,0.148c-0.182,-0.049 -0.321,-0.195 -0.36,-0.379c-0.341,-1.604 -1.78,-2.769 -3.421,-2.769c-1.93,0 -3.5,1.57 -3.5,3.5c0,0.143 0.021,0.28 0.041,0.418c0.029,0.203 -0.063,0.438 -0.242,0.54c-0.179,0.102 -0.396,0.118 -0.556,-0.01c-0.365,-0.293 -0.794,-0.448 -1.243,-0.448c-0.966,0 -1.792,0.691 -1.963,1.644c-0.048,0.267 -0.296,0.446 -0.569,0.405c-0.154,-0.024 -0.308,-0.049 -0.468,-0.049c-1.654,0 -3,1.346 -3,3c0,1.654 1.346,3 3,3h7.5c0.276,0 0.5,0.224 0.5,0.5c0,0.276 -0.224,0.5 -0.5,0.5h-7.5c-2.206,0 -4,-1.794 -4,-4c0,-2.206 1.794,-4 4,-4c0.059,0 0.116,0.002 0.174,0.006c0.414,-1.186 1.537,-2.006 2.826,-2.006c0.349,0 0.689,0.061 1.011,0.18c0.165,-2.333 2.115,-4.18 4.489,-4.18c1.831,0 3.466,1.127 4.153,2.774c0.68,-0.498 1.502,-0.774 2.347,-0.774c2.206,0 4,1.794 4,4c0,0.048 -0.001,0.095 -0.004,0.142c1.743,0.448 3.004,2.027 3.004,3.858c0,2.206 -1.794,4 -4,4z" fill="#472b29"></path><path d="M34.5,73c-0.159,0 -0.841,0 -1,0c-0.276,0 -0.5,0.224 -0.5,0.5c0,0.276 0.224,0.5 0.5,0.5c0.159,0 0.841,0 1,0c0.276,0 0.5,-0.224 0.5,-0.5c0,-0.276 -0.224,-0.5 -0.5,-0.5z" fill="#472b29"></path></g><path d="M52,37.5c-6.893,0 -12.5,5.607 -12.5,12.5c0,6.893 5.607,12.5 12.5,12.5c6.893,0 12.5,-5.608 12.5,-12.501c0,-6.893 -5.608,-12.499 -12.5,-12.499z" fill="#ffffff" stroke="none" stroke-width="1" stroke-linecap="butt" stroke-linejoin="miter"></path><path d="M52,37.5v12.5h-12.5c0,-6.89 5.61,-12.5 12.5,-12.5z" fill="#1772af" stroke="none" stroke-width="1" stroke-linecap="butt" stroke-linejoin="miter"></path><path d="M64.5,50c0,6.89 -5.61,12.5 -12.5,12.5v-12.5z" fill="#1772af" stroke="none" stroke-width="1" stroke-linecap="butt" stroke-linejoin="miter"></path><path d="M52,37.5c-6.893,0 -12.5,5.607 -12.5,12.5c0,6.893 5.607,12.5 12.5,12.5c6.893,0 12.5,-5.608 12.5,-12.501c0,-6.893 -5.608,-12.499 -12.5,-12.499z" fill="none" stroke="#472b29" stroke-width="1" stroke-linecap="butt" stroke-linejoin="miter"></path><g fill="none" stroke="#472b29" stroke-width="0.5" stroke-linecap="round" stroke-linejoin="round"><path d="M52.25,60.25v2.25"></path><path d="M52.25,48.25v9.5"></path><path d="M52.25,37.5v8.25"></path><path d="M44.75,50.25h-5.25"></path><path d="M64.5,50.25h-17.25"></path></g><path d="M42.691,36.868c-0.071,-0.5 -0.373,-0.922 -0.837,-1.132c-0.464,-0.211 -1.004,-0.132 -1.414,0.156c-0.033,0.025 -0.065,0.054 -0.095,0.079c0.068,-0.232 0.088,-0.467 0.03,-0.702c-0.055,-0.232 -0.176,-0.444 -0.348,-0.61c-0.347,-0.34 -0.874,-0.45 -1.328,-0.281c-0.213,0.081 -0.406,0.219 -0.549,0.395c-0.081,0.102 -0.161,0.202 -0.244,0.306c-0.425,0.529 -0.85,1.06 -1.274,1.589c-0.365,0.456 -0.728,0.913 -1.094,1.368c-0.024,0.029 -0.048,0.063 -0.071,0.091c-0.002,0 0.047,0.038 0.051,0.04c0.142,0.115 0.282,0.227 0.424,0.34c0.535,0.43 1.069,0.859 1.605,1.287c0.528,0.425 1.06,0.849 1.59,1.273c0.135,0.11 0.271,0.217 0.406,0.323c0.004,0.007 0.037,0.038 0.042,0.03c0.027,-0.033 0.054,-0.069 0.08,-0.1c0.364,-0.455 0.729,-0.909 1.091,-1.364c0.436,-0.547 0.872,-1.088 1.308,-1.634c0.225,-0.279 0.474,-0.547 0.58,-0.896c0.056,-0.183 0.066,-0.371 0.047,-0.558v0zM38,38.347c-0.221,-0.174 -0.441,-0.353 -0.661,-0.529c-0.084,-0.067 -0.168,-0.133 -0.252,-0.202c-0.003,-0.002 0.087,-0.111 0.092,-0.117c0.41,-0.515 0.821,-1.027 1.232,-1.54c0.108,-0.133 0.206,-0.279 0.372,-0.346c0.226,-0.095 0.494,-0.035 0.659,0.146c0.132,0.146 0.176,0.346 0.134,0.537c-0.05,0.171 -0.17,0.295 -0.277,0.43c-0.215,0.272 -0.433,0.541 -0.648,0.811c-0.218,0.269 -0.436,0.538 -0.651,0.81v0zM41.359,37.693c-0.14,0.173 -0.278,0.347 -0.418,0.521c-0.382,0.479 -0.766,0.957 -1.148,1.434c-0.002,0.002 -0.011,0.018 -0.015,0.016c-0.02,-0.016 -0.039,-0.033 -0.058,-0.049c-0.105,-0.083 -0.209,-0.165 -0.313,-0.248c-0.18,-0.146 -0.362,-0.292 -0.541,-0.436c0.347,-0.434 0.696,-0.867 1.041,-1.301c0.17,-0.213 0.339,-0.423 0.508,-0.636c0.121,-0.15 0.274,-0.259 0.475,-0.265c0.241,-0.006 0.452,0.133 0.555,0.349c0.086,0.211 0.056,0.438 -0.086,0.615zM65.735,34.446l-1.019,-0.946l-3.316,4.355l1.02,0.946l3.635,-1.664l-2.42,3.182l0.701,1.202l4.974,-2.283l-0.702,-1.204l-2.872,1.317l2.041,-2.678l-0.894,-1.114l-3.058,1.404zM50.567,31.54l1.164,3.674h0.917l1.162,-3.674l0.122,3.674l1.286,0.206l-0.183,-5.513l-1.652,-0.207l-1.193,3.882l-1.194,-3.882l-1.652,0.208l-0.184,5.512l1.285,-0.206z" fill="#ffffff" stroke="none" stroke-width="1" stroke-linecap="butt" stroke-linejoin="miter"></path></g></g></svg>